{
  "asset": {
    "version": "2.0",
    "generator": "THREE.GLTFExporter"
  },
  "scenes": [
    {
      "nodes": [
        0
      ]
    }
  ],
  "scene": 0,
  "nodes": [
    {
      "children": [
        5
      ],
      "matrix": [
        0.01,
        0,
        0,
        0,
        0,
        0.01,
        0,
        0,
        0,
        0,
        0.01,
        0,
        0,
        0,
        0,
        1
      ]
    },
    {
      "matrix": [
        1,
        1.3877787807814457e-17,
        3.0814879110195774e-33,
        0,
        0,
        2.220446049250313e-16,
        -1,
        0,
        1.3877787807814455e-17,
        1,
        2.220446049250313e-16,
        0,
        7.509530314680937e-16,
        39.71902058394343,
        7.703323358395426e-15,
        1
      ],
      "name": "Glass-Elipse",
      "mesh": 0
    },
    {
      "matrix": [
        0.91,
        0,
        0,
        0,
        0,
        0.9099999999999996,
        0,
        0,
        0,
        0,
        0.9099999999999996,
        0,
        0,
        20.281697114214452,
        0,
        1
      ],
      "name": "Stand",
      "children": [
        1
      ]
    },
    {
      "matrix": [
        -0.8208344506419012,
        -0.458510393358289,
        -0.34058629423662184,
        0,
        -0.5567657923817528,
        0.7753761783853828,
        0.2979993866201708,
        0,
        0.12744668325588793,
        0.43423496079300905,
        -0.8917383818991793,
        0,
        22.43168342889437,
        343.0901109905068,
        -202.01474300301894,
        1
      ],
      "camera": 0
    },
    {
      "matrix": [
        1,
        0,
        0,
        0,
        0,
        1,
        0,
        0,
        0,
        0,
        1,
        0,
        0,
        1,
        0,
        1
      ],
      "name": "Default Ambient Light"
    },
    {
      "name": "Scene",
      "children": [
        2,
        3,
        4
      ]
    }
  ],
  "bufferViews": [
    {
      "buffer": 0,
      "byteOffset": 0,
      "byteLength": 62544,
      "target": 34962,
      "byteStride": 12
    },
    {
      "buffer": 0,
      "byteOffset": 62544,
      "byteLength": 62544,
      "target": 34962,
      "byteStride": 12
    },
    {
      "buffer": 0,
      "byteOffset": 125088,
      "byteLength": 41696,
      "target": 34962,
      "byteStride": 8
    },
    {
      "buffer": 0,
      "byteOffset": 166784,
      "byteLength": 104448,
      "target": 34963
    }
  ],
  "buffers": [
    {
      "byteLength": 271232,
      "uri": "data:application/octet-stream;base64,"
    }
  ],
  "accessors": [
    {
      "bufferView": 0,
      "componentType": 5126,
      "count": 5212,
      "max": [
        197.29624938964844,
        197.29624938964844,
        2.6146316528320312
      ],
      "min": [
        -197.29624938964844,
        -197.29624938964844,
        0
      ],
      "type": "VEC3"
    },
    {
      "bufferView": 1,
      "componentType": 5126,
      "count": 5212,
      "max": [
        0.9996804594993591,
        0.9996804594993591,
        1
      ],
      "min": [
        -0.9996804594993591,
        -0.9996804594993591,
        -1
      ],
      "type": "VEC3"
    },
    {
      "bufferView": 2,
      "componentType": 5126,
      "count": 5212,
      "max": [
        1,
        1
      ],
      "min": [
        0,
        0
      ],
      "type": "VEC2"
    },
    {
      "bufferView": 3,
      "componentType": 5125,
      "count": 26112,
      "max": [
        5211
      ],
      "min": [
        0
      ],
      "type": "SCALAR"
    }
  ],
  "meshes": [
    {
      "primitives": [
        {
          "mode": 4,
          "attributes": {
            "POSITION": 0,
            "NORMAL": 1,
            "TEXCOORD_0": 2
          },
          "extras": {
            "shape": {
              "points": [
                -197.29625178574736,
                0,
                -197.29625178574736,
                -108.96371105396928,
                -197.29625178574736,
                108.96371105396928,
                0,
                0,
                197.29625178574736,
                -108.96371105396928,
                197.29625178574736,
                108.96371105396928,
                197.29625178574736,
                0,
                197.29625178574736,
                0,
                197.29625178574736,
                108.96371105396928,
                197.29625178574736,
                -108.96371105396928,
                0,
                0,
                -197.29625178574736,
                108.96371105396928,
                -197.29625178574736,
                -108.96371105396928,
                -197.29625178574736,
                0
              ],
              "shapeHoles": [
                {
                  "points": [
                    0,
                    -155.86403891074042,
                    -86.08133173263573,
                    -155.86403891074042,
                    86.08133173263573,
                    -155.86403891074042,
                    0,
                    155.86403891074042,
                    0,
                    155.86403891074042,
                    -86.08133173263573,
                    155.86403891074042,
                    86.08133173263573,
                    0,
                    0,
                    155.86403891074042,
                    86.08133173263573,
                    155.86403891074042,
                    -86.08133173263573,
                    155.86403891074042,
                    0,
                    -155.86403891074042,
                    0,
                    -155.86403891074042,
                    86.08133173263573,
                    -155.86403891074042,
                    -86.08133173263573,
                    0
                  ],
                  "shapeHoles": [],
                  "isClosed": true,
                  "roundness": 0
                }
              ],
              "isClosed": true,
              "roundness": 0
            },
            "parameters": {
              "width": 394.5925035714947,
              "depth": 2.614631587231919,
              "spikes": 128,
              "angle": 360,
              "innerRadius": 79,
              "extrudeBevelSize": 2,
              "extrudeBevelSegments": 8,
              "height": 394.5925035714947,
              "type": "EllipseGeometry"
            },
            "type": "EllipseGeometry"
          },
          "indices": 3
        }
      ]
    }
  ],
  "cameras": [
    {
      "type": "perspective",
      "perspective": {
        "aspectRatio": 1.6,
        "yfov": 0.7853981633974483,
        "zfar": 100000,
        "znear": 5
      }
    }
  ]
}