<?xml version="1.0" encoding="UTF-8"?>
<svg id="Layer_2" data-name="Layer 2" xmlns="http://www.w3.org/2000/svg" viewBox="0 0 718.57 674.14">
  <defs>
    <style>
      .cls-1 {
        fill: none;
        stroke: #f3f2f3;
        stroke-linecap: round;
        stroke-linejoin: bevel;
        stroke-width: 37px;
      }
    </style>
  </defs>
  <g id="Layer_1-2" data-name="Layer 1">
    <g>
      <g>
        <g>
          <polyline class="cls-1" points="123.58 116.24 123.52 141.01 123.6 197.95"/>
          <circle class="cls-1" cx="123.47" cy="220.39" r="22.44"/>
        </g>
        <g>
          <path class="cls-1" d="M19.43,482.09c-6.36,39.72,46,73.68,102.85,73.68"/>
          <path class="cls-1" d="M225.12,482.09c6.2,40.48-46,73.68-102.85,73.68"/>
          <path class="cls-1" d="M19.43,187.29c-8.75-37.82,46-71.74,102.85-71.74"/>
          <path class="cls-1" d="M225.12,187.29c9.23-38.57-46-71.74-102.85-71.74"/>
          <path class="cls-1" d="M19.39,187.29c16.7,80,107.14,150.75,107.14,150.75,0,0,87.42,74.07,98.58,144.04"/>
          <path class="cls-1" d="M165.14,283.41s55.43-73.51,60-96.12"/>
          <path class="cls-1" d="M19.41,482.09c7.9-28.94,62.78-99.62,62.78-99.62"/>
        </g>
      </g>
      <g>
        <g>
          <polyline class="cls-1" points="592.34 411.54 592.22 454.14 592.29 552.04"/>
          <polyline class="cls-1" points="560.26 513.52 579.55 491.55 624.15 441.25"/>
        </g>
        <g>
          <path class="cls-1" d="M493.36,481.12c-6.36,39.72,46,73.68,102.85,73.68"/>
          <path class="cls-1" d="M699.05,481.12c6.2,40.48-46,73.68-102.85,73.68"/>
          <path class="cls-1" d="M493.36,186.32c-8.75-37.82,46-71.74,102.85-71.74"/>
          <path class="cls-1" d="M699.05,186.32c9.23-38.57-46-71.74-102.85-71.74"/>
          <path class="cls-1" d="M493.33,186.32c16.7,80,107.14,150.75,107.14,150.75,0,0,87.42,74.07,98.58,144.04"/>
          <path class="cls-1" d="M639.07,282.44s55.43-73.51,60-96.12"/>
          <path class="cls-1" d="M493.34,481.12c7.9-28.94,62.78-99.62,62.78-99.62"/>
        </g>
      </g>
      <g>
        <g>
          <polyline class="cls-1" points="360.12 225.84 360.3 164.18 360.2 22.49"/>
          <polyline class="cls-1" points="406.56 78.24 378.63 110.05 314.09 182.84"/>
        </g>
        <g>
          <polyline class="cls-1" points="360.16 654.65 360.25 618.79 360.14 536.38"/>
          <circle class="cls-1" cx="360.33" cy="503.91" r="32.47"/>
        </g>
        <g>
          <path class="cls-1" d="M509.03,125.14c9.21-57.49-66.58-106.64-148.86-106.64"/>
          <path class="cls-1" d="M211.31,125.14c-8.98-58.59,66.58-106.64,148.86-106.64"/>
          <path class="cls-1" d="M509.03,551.81c12.67,54.73-66.58,103.83-148.86,103.83"/>
          <path class="cls-1" d="M211.31,551.81c-13.35,55.82,66.58,103.83,148.86,103.83"/>
          <path class="cls-1" d="M509.07,551.81c-24.18-115.79-155.07-218.19-155.07-218.19,0,0-126.53-107.2-142.69-208.48"/>
          <path class="cls-1" d="M298.13,412.69s-80.23,106.4-86.85,139.12"/>
          <path class="cls-1" d="M509.05,125.14c-11.43,41.89-90.86,144.19-90.86,144.19"/>
        </g>
      </g>
    </g>
  </g>
</svg>