<?xml version="1.0" encoding="UTF-8"?>
<svg id="Layer_2" data-name="Layer 2" xmlns="http://www.w3.org/2000/svg" viewBox="0 0 718.57 674.14">
  <defs>
    <style>
      .cls-1 {
        fill: #e6e6e6;
      }
    </style>
  </defs>
  <g id="Layer_1-2" data-name="Layer 1">
    <g>
      <path class="cls-1" d="M105.08,116.19l-.06,24.78v.07s.08,56.94,.08,56.94c.01,10.22,8.31,18.49,18.53,18.47,10.22-.01,18.49-8.31,18.47-18.53l-.08-56.94v.07s.06-24.78,.06-24.78c.03-10.22-8.23-18.52-18.45-18.55-10.22-.03-18.52,8.23-18.55,18.45h0Z"/>
      <path class="cls-1" d="M1.16,479.16c-.51,3.17-.76,6.35-.76,9.49,0,6.69,1.14,13.23,3.2,19.35,1.8,5.37,4.3,10.42,7.32,15.13,5.29,8.24,12.13,15.43,19.99,21.67,11.81,9.34,25.96,16.59,41.49,21.63,15.53,5.03,32.46,7.82,49.88,7.83,10.22,0,18.5-8.28,18.5-18.5s-8.28-18.5-18.5-18.5c-11.68,0-23.23-1.66-33.82-4.62-7.94-2.22-15.35-5.17-21.86-8.63-4.89-2.59-9.27-5.46-13.02-8.47-5.64-4.51-9.81-9.33-12.42-13.89-1.31-2.28-2.24-4.5-2.85-6.65-.61-2.15-.9-4.23-.9-6.36,0-1.19,.09-2.39,.29-3.64,1.62-10.09-5.25-19.58-15.34-21.19-10.09-1.62-19.58,5.25-21.19,15.34h0Z"/>
      <path class="cls-1" d="M206.84,484.89c.2,1.29,.29,2.53,.29,3.74,0,2.64-.42,5.18-1.29,7.8-.76,2.29-1.88,4.64-3.4,7.04-2.66,4.19-6.6,8.51-11.74,12.57-7.69,6.09-18.04,11.52-29.86,15.29-11.82,3.79-25.08,5.95-38.56,5.94-10.22,0-18.5,8.28-18.5,18.5s8.28,18.5,18.5,18.5c15.14,0,29.93-2.08,43.74-5.89,10.36-2.86,20.19-6.7,29.22-11.45,6.77-3.56,13.11-7.64,18.87-12.24,8.63-6.91,16.02-15.02,21.4-24.44,2.68-4.71,4.85-9.75,6.33-15.06,1.49-5.31,2.29-10.88,2.29-16.55,0-3.1-.24-6.23-.72-9.35-1.55-10.1-10.99-17.03-21.09-15.48-10.1,1.55-17.03,10.99-15.48,21.09h0Z"/>
      <path class="cls-1" d="M37.45,183.12c-.31-1.35-.45-2.61-.45-3.86,0-2.02,.36-4.04,1.17-6.28,.71-1.95,1.8-4.06,3.32-6.27,2.66-3.86,6.71-8.02,11.98-11.94,7.9-5.89,18.5-11.2,30.43-14.89,11.93-3.71,25.18-5.84,38.37-5.83,10.22,0,18.5-8.28,18.5-18.5s-8.28-18.5-18.5-18.5c-14.91,0-29.55,2.05-43.29,5.74-10.31,2.77-20.11,6.47-29.15,11.01-6.78,3.41-13.13,7.29-18.93,11.65-8.69,6.55-16.21,14.19-21.79,23.18-2.78,4.49-5.06,9.33-6.65,14.47C.88,168.25,0,173.7,0,179.27c0,4.05,.46,8.15,1.4,12.2,2.3,9.95,12.24,16.16,22.2,13.85,9.95-2.3,16.16-12.24,13.85-22.2h0Z"/>
      <path class="cls-1" d="M243.12,191.6c1.02-4.24,1.52-8.55,1.52-12.8,0-6.63-1.24-13.09-3.43-19.07-1.92-5.24-4.55-10.13-7.68-14.63-5.5-7.89-12.5-14.66-20.46-20.51-11.97-8.76-26.16-15.51-41.6-20.22-15.45-4.69-32.16-7.3-49.19-7.31-10.22,0-18.5,8.28-18.5,18.5s8.28,18.5,18.5,18.5c11.49,0,23.04,1.56,33.73,4.38,8.01,2.11,15.54,4.91,22.19,8.19,4.99,2.46,9.47,5.18,13.31,8.03,5.77,4.27,10.01,8.82,12.57,12.95,1.29,2.07,2.18,4.03,2.75,5.87,.57,1.85,.83,3.57,.83,5.32,0,1.34-.15,2.7-.51,4.19-2.38,9.94,3.75,19.92,13.69,22.3,9.94,2.38,19.92-3.75,22.3-13.69h0Z"/>
      <path class="cls-1" d="M1.28,191.08c2.38,11.37,6.01,22.36,10.48,32.89,7.83,18.44,18.23,35.52,29.33,50.89,16.67,23.04,35,42.27,49.25,55.88,14.25,13.61,24.42,21.58,24.79,21.87l11.4-14.57-11.96,14.11,10.91-12.88-10.92,12.87h.01s10.91-12.87,10.91-12.87l-10.92,12.87,.04,.03c.5,.43,6.07,5.2,14.24,13.12,12.26,11.86,30.4,30.84,46.08,52.53,7.84,10.83,15.06,22.33,20.67,33.79,5.62,11.46,9.59,22.85,11.26,33.38,1.61,10.09,11.09,16.96,21.18,15.35,10.09-1.61,16.96-11.09,15.35-21.18-1.65-10.35-4.65-20.43-8.51-30.18-6.78-17.06-16.21-33.16-26.47-47.91-15.4-22.1-32.71-41.17-46.26-54.88-13.55-13.7-23.34-22-23.65-22.27l-.56-.46-10.46,13.37,10.47-13.36h-.01s-10.46,13.36-10.46,13.36l10.47-13.36-.04-.03c-.49-.38-6.21-4.93-14.72-12.67-12.76-11.6-31.78-30.46-48.74-53.03-8.48-11.28-16.44-23.47-22.9-36.03-6.46-12.57-11.41-25.49-14.06-38.21-2.09-10-11.89-16.42-21.89-14.33-10,2.09-16.42,11.89-14.33,21.89h0Z"/>
      <path class="cls-1" d="M179.91,294.55c.11-.14,14.09-18.68,28.81-40.31,7.37-10.83,14.92-22.42,21.12-33.11,3.1-5.36,5.88-10.49,8.17-15.37,1.15-2.45,2.17-4.84,3.06-7.25,.89-2.42,1.65-4.84,2.21-7.54,2.03-10.01-4.45-19.78-14.46-21.8-10.01-2.03-19.78,4.45-21.8,14.46-.02,.12-.22,.92-.65,2.07-.79,2.17-2.33,5.52-4.36,9.38-1.78,3.39-3.95,7.2-6.36,11.22-4.22,7.05-9.2,14.77-14.26,22.32-7.59,11.33-15.38,22.3-21.25,30.4-2.93,4.05-5.39,7.39-7.1,9.7-.86,1.16-1.53,2.06-1.98,2.67-.23,.3-.4,.53-.51,.69l-.13,.17-.03,.04h0s0,0,0,0c-6.15,8.16-4.52,19.76,3.63,25.91,8.16,6.15,19.76,4.52,25.91-3.63h0Z"/>
      <path class="cls-1" d="M37.26,486.96c.26-.96,.72-2.33,1.36-3.94,1.2-3.04,3.05-6.93,5.34-11.22,4.02-7.54,9.39-16.34,15.13-25.15,8.63-13.23,18.11-26.52,25.4-36.44,3.64-4.96,6.74-9.09,8.92-11.96,1.09-1.44,1.95-2.56,2.53-3.31,.29-.38,.51-.67,.66-.86,.07-.09,.13-.17,.16-.21l.04-.05h0s0-.01,0-.01c6.27-8.07,4.8-19.69-3.27-25.96-8.07-6.27-19.69-4.8-25.96,3.27-.13,.16-14,18.03-29.04,39.79-7.52,10.9-15.34,22.75-21.96,34.07-3.31,5.67-6.33,11.19-8.89,16.52-1.28,2.67-2.45,5.29-3.48,7.89-1.03,2.6-1.93,5.18-2.66,7.84-2.69,9.86,3.12,20.03,12.98,22.72,9.86,2.69,20.03-3.12,22.72-12.98h0Z"/>
      <path class="cls-1" d="M573.84,411.49l-.12,42.6v.07s.07,97.9,.07,97.9c0,10.22,8.3,18.49,18.51,18.49,10.22,0,18.49-8.3,18.49-18.51l-.07-97.9v.07s.12-42.6,.12-42.6c.03-10.22-8.23-18.52-18.45-18.55-10.22-.03-18.52,8.23-18.55,18.45h0Z"/>
      <path class="cls-1" d="M574.16,525.73l19.3-21.98-.06,.07,44.59-50.3c6.78-7.65,6.08-19.34-1.57-26.12-7.65-6.78-19.34-6.08-26.12,1.57l-44.59,50.3-.06,.07-19.3,21.98c-6.74,7.68-5.98,19.37,1.7,26.11,7.68,6.74,19.37,5.98,26.11-1.7h0Z"/>
      <path class="cls-1" d="M475.09,478.19c-.51,3.17-.76,6.35-.76,9.49,0,6.69,1.14,13.23,3.2,19.35,1.8,5.37,4.3,10.42,7.32,15.13,5.29,8.24,12.13,15.43,19.99,21.67,11.81,9.34,25.96,16.59,41.49,21.63,15.53,5.03,32.46,7.82,49.88,7.83,10.22,0,18.5-8.28,18.5-18.5s-8.28-18.5-18.5-18.5c-11.68,0-23.23-1.66-33.82-4.62-7.94-2.22-15.35-5.17-21.86-8.63-4.89-2.59-9.27-5.46-13.02-8.47-5.64-4.51-9.81-9.33-12.42-13.89-1.31-2.28-2.24-4.5-2.85-6.65-.61-2.15-.9-4.23-.9-6.36,0-1.19,.09-2.39,.29-3.64,1.62-10.09-5.25-19.58-15.34-21.19-10.09-1.62-19.58,5.25-21.19,15.34h0Z"/>
      <path class="cls-1" d="M680.77,483.92c.2,1.29,.29,2.53,.29,3.74,0,2.64-.42,5.18-1.29,7.8-.76,2.29-1.88,4.64-3.4,7.04-2.66,4.19-6.6,8.51-11.74,12.57-7.69,6.09-18.04,11.52-29.86,15.29-11.82,3.79-25.08,5.95-38.56,5.94-10.22,0-18.5,8.28-18.5,18.5s8.28,18.5,18.5,18.5c15.14,0,29.93-2.08,43.74-5.89,10.36-2.86,20.19-6.7,29.22-11.45,6.77-3.56,13.11-7.64,18.87-12.24,8.63-6.91,16.02-15.02,21.4-24.44,2.68-4.71,4.85-9.75,6.33-15.06,1.49-5.31,2.29-10.88,2.29-16.55,0-3.1-.24-6.23-.72-9.35-1.55-10.1-10.99-17.03-21.09-15.48-10.1,1.55-17.03,10.99-15.48,21.09h0Z"/>
      <path class="cls-1" d="M511.38,182.15c-.31-1.35-.45-2.61-.45-3.86,0-2.02,.36-4.04,1.17-6.28,.71-1.95,1.8-4.06,3.32-6.27,2.66-3.86,6.71-8.02,11.98-11.94,7.9-5.89,18.5-11.2,30.43-14.89,11.93-3.71,25.18-5.84,38.37-5.83,10.22,0,18.5-8.28,18.5-18.5s-8.28-18.5-18.5-18.5c-14.91,0-29.55,2.05-43.29,5.74-10.31,2.77-20.11,6.47-29.15,11.01-6.78,3.41-13.13,7.29-18.93,11.65-8.69,6.55-16.21,14.19-21.79,23.18-2.78,4.49-5.06,9.33-6.65,14.47-1.59,5.14-2.47,10.59-2.47,16.15,0,4.05,.46,8.15,1.4,12.2,2.3,9.95,12.24,16.16,22.2,13.85,9.95-2.3,16.16-12.24,13.85-22.2h0Z"/>
      <path class="cls-1" d="M717.05,190.63c1.02-4.24,1.52-8.55,1.52-12.8,0-6.63-1.24-13.09-3.43-19.07-1.92-5.24-4.55-10.13-7.68-14.63-5.5-7.89-12.5-14.66-20.46-20.51-11.97-8.76-26.16-15.51-41.6-20.22-15.45-4.69-32.16-7.3-49.19-7.31-10.22,0-18.5,8.28-18.5,18.5s8.28,18.5,18.5,18.5c11.49,0,23.04,1.56,33.73,4.38,8.01,2.11,15.54,4.91,22.19,8.19,4.99,2.46,9.47,5.18,13.31,8.03,5.77,4.27,10.01,8.82,12.57,12.95,1.29,2.07,2.18,4.03,2.75,5.87,.57,1.85,.83,3.57,.83,5.32,0,1.34-.15,2.7-.51,4.19-2.38,9.94,3.75,19.92,13.69,22.3,9.94,2.38,19.92-3.75,22.3-13.69h0Z"/>
      <path class="cls-1" d="M475.22,190.1c2.38,11.37,6.01,22.36,10.48,32.89,7.83,18.44,18.23,35.52,29.33,50.89,16.67,23.04,35,42.27,49.25,55.88,14.25,13.61,24.42,21.58,24.79,21.87l11.4-14.57-11.96,14.11,11-12.99-11.01,12.98h.01s11-12.98,11-12.98l-11.01,12.98,.04,.03c.5,.43,6.07,5.2,14.24,13.12,12.26,11.86,30.4,30.84,46.08,52.53,7.84,10.83,15.06,22.33,20.67,33.79,5.62,11.46,9.59,22.85,11.26,33.38,1.61,10.09,11.09,16.96,21.18,15.35,10.09-1.61,16.96-11.09,15.35-21.18-1.65-10.35-4.65-20.43-8.51-30.18-6.78-17.06-16.21-33.16-26.47-47.91-15.4-22.1-32.71-41.17-46.26-54.88-13.55-13.7-23.34-22-23.65-22.27l-.56-.46-10.49,13.41,10.5-13.4h-.01s-10.49,13.4-10.49,13.4l10.5-13.4-.04-.03c-.49-.38-6.21-4.93-14.72-12.67-12.76-11.6-31.78-30.46-48.74-53.03-8.48-11.28-16.44-23.47-22.9-36.03-6.46-12.57-11.41-25.49-14.06-38.21-2.09-10-11.89-16.42-21.89-14.33-10,2.09-16.42,11.89-14.33,21.89h0Z"/>
      <path class="cls-1" d="M653.84,293.58c.11-.14,14.09-18.68,28.81-40.31,7.37-10.83,14.92-22.42,21.12-33.11,3.1-5.36,5.88-10.49,8.17-15.37,1.15-2.45,2.17-4.84,3.06-7.25,.89-2.42,1.65-4.84,2.21-7.54,2.03-10.01-4.45-19.78-14.46-21.8-10.01-2.03-19.78,4.45-21.8,14.46-.02,.12-.22,.92-.65,2.07-.79,2.17-2.33,5.52-4.36,9.38-1.78,3.39-3.95,7.2-6.36,11.23-4.22,7.05-9.2,14.77-14.26,22.32-7.59,11.33-15.38,22.3-21.25,30.4-2.93,4.05-5.39,7.39-7.1,9.7-.86,1.16-1.53,2.06-1.98,2.67-.23,.3-.4,.53-.51,.69l-.13,.17-.03,.04h0s0,0,0,0c-6.15,8.16-4.52,19.76,3.63,25.91,8.16,6.15,19.76,4.52,25.91-3.63h0Z"/>
      <path class="cls-1" d="M511.19,485.99c.26-.96,.72-2.33,1.36-3.94,1.2-3.04,3.05-6.93,5.34-11.22,4.02-7.54,9.39-16.34,15.13-25.15,8.63-13.23,18.11-26.52,25.4-36.44,3.64-4.96,6.74-9.09,8.92-11.96,1.09-1.44,1.95-2.56,2.53-3.31,.29-.38,.51-.67,.66-.86,.07-.09,.13-.17,.16-.21l.04-.05h0s0-.01,0-.01c6.27-8.07,4.8-19.69-3.27-25.96-8.07-6.27-19.69-4.8-25.96,3.27-.13,.16-14,18.03-29.04,39.79-7.52,10.9-15.34,22.75-21.96,34.07-3.31,5.67-6.33,11.19-8.89,16.52-1.28,2.67-2.45,5.29-3.48,7.89-1.03,2.6-1.93,5.18-2.66,7.84-2.69,9.86,3.12,20.03,12.98,22.72,9.86,2.69,20.03-3.12,22.72-12.98h0Z"/>
      <path class="cls-1" d="M378.62,225.89l.18-61.66v-.07s-.1-141.69-.1-141.69c0-10.22-8.3-18.49-18.51-18.49-10.22,0-18.49,8.3-18.49,18.51l.1,141.69v-.07s-.18,61.66-.18,61.66c-.03,10.22,8.23,18.52,18.45,18.55,10.22,.03,18.52-8.23,18.55-18.45h0Z"/>
      <path class="cls-1" d="M392.66,66.03l-27.93,31.81,.06-.07-64.54,72.8c-6.78,7.64-6.08,19.34,1.57,26.12,7.64,6.78,19.34,6.08,26.12-1.57l64.54-72.8,.06-.07,27.93-31.81c6.74-7.68,5.98-19.37-1.7-26.11-7.68-6.74-19.37-5.98-26.11,1.7h0Z"/>
      <path class="cls-1" d="M378.66,654.7l.09-35.86v-.07s-.11-82.41-.11-82.41c-.01-10.22-8.31-18.49-18.53-18.47-10.22,.01-18.49,8.31-18.47,18.53l.11,82.41v-.07s-.09,35.86-.09,35.86c-.03,10.22,8.23,18.52,18.45,18.55,10.22,.03,18.52-8.23,18.55-18.45h0Z"/>
      <circle class="cls-1" cx="360.68" cy="517.85" r="51.5"/>
      <path class="cls-1" d="M527.29,128.07c.67-4.16,.99-8.31,.99-12.43,0-8.75-1.49-17.3-4.21-25.37-2.38-7.07-5.68-13.78-9.71-20.08-7.07-11.02-16.32-20.79-27.1-29.33-16.18-12.8-35.82-22.9-57.46-29.92C408.16,3.92,384.48,0,360.17,0c-10.22,0-18.5,8.28-18.5,18.5s8.28,18.5,18.5,18.5c17.69,0,35.12,2.5,51.18,7,12.04,3.37,23.3,7.85,33.29,13.14,7.49,3.97,14.27,8.39,20.15,13.11,8.83,7.07,15.59,14.77,19.97,22.45,2.2,3.84,3.83,7.67,4.91,11.48,1.08,3.81,1.62,7.6,1.62,11.46,0,2.16-.17,4.34-.53,6.58-1.62,10.09,5.25,19.58,15.34,21.19,10.09,1.62,19.58-5.25,21.19-15.34h0Z"/>
      <path class="cls-1" d="M229.6,122.34c-.35-2.27-.51-4.49-.51-6.67,0-4.73,.77-9.31,2.29-13.9,1.33-4.01,3.26-8.02,5.8-12.02,4.44-6.98,10.79-13.89,18.84-20.24,12.06-9.54,27.88-17.79,45.82-23.51,17.93-5.74,37.95-9,58.33-8.99,10.22,0,18.5-8.28,18.5-18.5S370.39,0,360.17,0c-21.15,0-41.83,2.91-61.11,8.23-14.46,3.99-28.14,9.34-40.65,15.91-9.38,4.93-18.1,10.56-25.99,16.86-11.81,9.45-21.79,20.45-28.95,33.01-3.57,6.28-6.43,12.94-8.39,19.93-1.96,6.98-3.01,14.28-3,21.73,0,4.06,.31,8.17,.94,12.28,1.55,10.1,10.99,17.03,21.09,15.48,10.1-1.55,17.03-10.99,15.48-21.09h0Z"/>
      <path class="cls-1" d="M491,555.98c.59,2.56,.86,5.02,.86,7.45,0,3.95-.71,7.86-2.2,11.93-1.3,3.56-3.21,7.22-5.77,10.93-4.47,6.49-10.98,13.1-19.21,19.21-12.33,9.19-28.47,17.22-46.52,22.82-18.06,5.61-38.02,8.82-57.99,8.81-10.22,0-18.5,8.28-18.5,18.5s8.28,18.5,18.5,18.5c20.81,0,41.31-2.87,60.5-8.03,14.4-3.87,28.07-9.04,40.62-15.34,9.41-4.73,18.18-10.09,26.14-16.08,11.92-8.99,22.07-19.37,29.48-31.3,3.69-5.96,6.68-12.32,8.75-19.03,2.07-6.7,3.2-13.75,3.2-20.94,0-5.24-.6-10.54-1.82-15.79-2.3-9.95-12.24-16.16-22.2-13.85-9.95,2.3-16.16,12.24-13.85,22.2h0Z"/>
      <path class="cls-1" d="M193.32,547.5c-1.32,5.52-1.98,11.1-1.98,16.59,0,8.57,1.59,16.94,4.46,24.76,2.51,6.85,5.97,13.29,10.14,19.3,7.32,10.51,16.79,19.71,27.72,27.74,16.41,12.02,36.15,21.45,57.72,28.02,21.57,6.55,45,10.21,68.78,10.22,10.22,0,18.5-8.28,18.5-18.5s-8.28-18.5-18.5-18.5c-17.38,0-34.77-2.36-50.92-6.61-12.11-3.18-23.51-7.42-33.67-12.44-7.62-3.76-14.53-7.95-20.53-12.4-9.01-6.68-15.89-13.94-20.28-21.02-2.2-3.54-3.81-7.02-4.86-10.43-1.05-3.41-1.56-6.75-1.57-10.15,0-2.59,.3-5.22,.96-7.99,2.38-9.94-3.75-19.92-13.69-22.3-9.94-2.38-19.92,3.75-22.3,13.69h0Z"/>
      <path class="cls-1" d="M527.18,548.02c-3.31-15.84-8.39-31.24-14.69-46.07-11.02-25.95-25.74-50.17-41.55-72.04-23.72-32.79-49.92-60.29-70.29-79.75-20.37-19.45-34.9-30.84-35.26-31.12l-11.4,14.57,11.96-14.11h0c-.25-.21-8.13-6.92-20-18.36-17.81-17.15-44.59-45-68.01-77.2-11.71-16.09-22.57-33.26-31.08-50.56-8.53-17.3-14.67-34.7-17.28-51.15-1.61-10.09-11.09-16.96-21.18-15.35-10.09,1.61-16.96,11.09-15.35,21.18,2.28,14.27,6.43,28.29,11.84,41.94,9.48,23.89,22.82,46.69,37.41,67.66,21.89,31.43,46.67,58.73,66.05,78.34,19.38,19.6,33.38,31.47,33.69,31.74l.56,.46,10.15-12.98-10.16,12.97h.01s10.15-12.97,10.15-12.97l-10.16,12.97,.07,.06c.83,.65,9.26,7.35,21.75,18.71,18.73,17.04,46.59,44.65,71.58,77.9,12.5,16.62,24.28,34.64,33.89,53.34,9.62,18.71,17.06,38.08,21.08,57.39,2.09,10,11.89,16.42,21.89,14.33,10-2.09,16.42-11.89,14.33-21.89h0Z"/>
      <path class="cls-1" d="M283.36,401.55c-.11,.14-20.28,26.9-41.46,58.02-10.6,15.58-21.44,32.22-30.25,47.42-4.41,7.61-8.32,14.85-11.48,21.61-1.58,3.38-2.98,6.65-4.17,9.85-1.18,3.21-2.16,6.35-2.84,9.69-2.03,10.01,4.45,19.78,14.46,21.8,10.01,2.03,19.78-4.45,21.8-14.46,.15-.75,.57-2.28,1.29-4.22,1.34-3.66,3.7-8.77,6.75-14.56,5.35-10.17,12.82-22.51,20.94-35.09,12.19-18.9,25.87-38.42,36.46-53.15,5.3-7.37,9.82-13.55,13.02-17.87,1.6-2.16,2.86-3.86,3.72-5.01,.43-.58,.76-1.02,.98-1.31,.11-.15,.19-.26,.25-.33l.06-.08v-.02s.02,0,.02,0l-8.03-6.05,8.03,6.05h0s-8.03-6.05-8.03-6.05l8.03,6.05c6.15-8.16,4.52-19.76-3.63-25.91-8.16-6.15-19.76-4.52-25.91,3.63h0Z"/>
      <path class="cls-1" d="M491.2,120.27c-.48,1.77-1.24,4.02-2.25,6.57-1.9,4.8-4.7,10.68-8.12,17.08-5.99,11.24-13.87,24.14-22.28,37.02-12.61,19.34-26.41,38.68-37.02,53.12-5.3,7.22-9.81,13.22-12.99,17.41-1.59,2.09-2.84,3.73-3.69,4.84-.43,.55-.75,.98-.97,1.26-.11,.14-.19,.24-.24,.31l-.06,.07v.02s-.01,0-.01,0h0c-6.27,8.07-4.8,19.69,3.27,25.96,8.07,6.27,19.69,4.8,25.96-3.27,.13-.17,20.14-25.93,41.75-57.22,10.81-15.66,22.03-32.68,31.45-48.78,4.71-8.06,8.98-15.88,12.54-23.32,1.78-3.72,3.39-7.34,4.8-10.88,1.4-3.55,2.61-7.01,3.55-10.47,2.69-9.86-3.12-20.03-12.98-22.72-9.86-2.69-20.03,3.12-22.72,12.98h0Z"/>
      <circle class="cls-1" cx="123.68" cy="207.85" r="40.5"/>
    </g>
  </g>
</svg>